<svg width="159" height="44" viewBox="0 0 159 44" fill="none" xmlns="http://www.w3.org/2000/svg">
<g clip-path="url(#clip0_612_652)">
<path d="M1.12305 1.04346V37.1437H20.7173V1.04346H1.12305ZM16.4467 28.3795C16.3729 33.1491 12.6491 32.8958 12.6491 32.8958H9.17649C5.3197 32.7318 5.37881 28.4093 5.37881 28.4093V25.1451L8.99916 27.2616V28.2006C9.01394 29.6166 10.4473 29.6315 10.4473 29.6315H11.6295C12.7082 29.6315 12.7968 28.3944 12.7968 28.3944C12.7968 28.3944 12.7968 26.3673 12.7968 24.7426V22.7752C12.7821 22.5367 12.5752 22.2833 12.3683 22.0895L12.3535 22.0746C12.1467 21.8809 11.9398 21.7616 11.9398 21.7616L6.56097 18.6613C5.42314 17.9012 5.40836 16.4405 5.40836 16.3659V9.15186C5.68913 5.39576 8.95483 5.29142 8.95483 5.29142H12.8707C16.6536 5.515 16.4467 9.95674 16.4467 9.95674V12.6397H12.8116C12.7821 12.6099 12.8116 11.3578 12.8116 9.95674C12.8116 8.57056 11.5408 8.55565 11.5408 8.55565C11.5408 8.55565 11.3339 8.55565 10.2256 8.55565C9.11738 8.55565 8.96961 10.0909 8.96961 10.0909C8.96961 10.0909 8.96961 13.8321 8.96961 14.8903C8.96961 15.9337 9.75279 16.2467 9.75279 16.2467L15.0725 19.2874C16.5354 20.2115 16.432 21.5678 16.432 21.5678C16.432 21.5678 16.432 21.6275 16.432 21.7616C16.4467 22.0597 16.4615 22.7006 16.4615 23.7291C16.4763 24.8321 16.4763 26.3524 16.4467 28.3795ZM5.36403 20.0177L9.07305 22.2088L9.04349 23.8036V25.2345L5.37881 23.0584L5.36403 20.0177Z" fill="white"/>
<path d="M29.3911 43.0016V43.9257H24.0566V36.5029H29.2434V37.4271H25.1058V39.7075H28.8V40.6018H25.1058V43.0016H29.3911Z" fill="white"/>
<path d="M37.4144 36.5029V43.9257H36.5573L32.139 38.3959V43.9257H31.0898V36.5029H31.9469L36.3652 42.0327V36.5029H37.4144Z" fill="white"/>
<path d="M41.0796 37.4271H38.5527V36.5029H44.6408V37.4271H42.114V43.9257H41.0796V37.4271Z" fill="white"/>
<path d="M51.1138 43.0016V43.9257H45.7793V36.5029H50.966V37.4271H46.8285V39.7075H50.5227V40.6018H46.8285V43.0016H51.1138Z" fill="white"/>
<path d="M57.7341 43.9255L56.1529 41.645C56.0052 41.6599 55.8426 41.6599 55.6949 41.6599H53.8773V43.9106H52.8281V36.4878H55.6949C57.6011 36.4878 58.7685 37.4566 58.7685 39.0664C58.7685 40.2141 58.1774 41.0339 57.1578 41.4065L58.9015 43.8957H57.7341V43.9255ZM57.7045 39.0813C57.7045 38.023 56.9952 37.4119 55.6505 37.4119H53.8625V40.7507H55.6505C56.9952 40.7656 57.7045 40.1545 57.7045 39.0813Z" fill="white"/>
<path d="M61.812 37.4271H59.2852V36.5029H65.3733V37.4271H62.8464V43.9257H61.812V37.4271Z" fill="white"/>
<path d="M70.8258 42.0623H66.9247L66.1119 43.9106H65.0332L68.358 36.4878H69.3924L72.732 43.9106H71.6237L70.8258 42.0623ZM70.4563 41.2127L68.8752 37.5759L67.2941 41.2127H70.4563Z" fill="white"/>
<path d="M73.8262 36.5029H74.8753V43.9257H73.8262V36.5029Z" fill="white"/>
<path d="M83.4163 36.5029V43.9257H82.5593L78.141 38.3959V43.9257H77.0918V36.5029H77.9489L82.3672 42.0327V36.5029H83.4163Z" fill="white"/>
<path d="M92.4305 43.9255L92.4157 38.5149L89.7558 43.0162H89.2682L86.6083 38.5447V43.9106H85.6035V36.4878H86.4606L89.5342 41.7046L92.5635 36.4878H93.4205L93.4353 43.9106H92.4305V43.9255Z" fill="white"/>
<path d="M100.985 43.0016V43.9257H95.6504V36.5029H100.837V37.4271H96.6996V39.7075H100.394V40.6018H96.6996V43.0016H100.985Z" fill="white"/>
<path d="M108.994 36.5029V43.9257H108.137L103.719 38.3959V43.9257H102.67V36.5029H103.527L107.945 42.0327V36.5029H108.994Z" fill="white"/>
<path d="M112.66 37.4271H110.133V36.5029H116.221V37.4271H113.694V43.9257H112.66V37.4271Z" fill="white"/>
<path d="M125.293 40.1694H126.297V43.061C125.559 43.687 124.539 44 123.519 44C121.259 44 119.604 42.4052 119.604 40.2141C119.604 38.0231 121.259 36.4282 123.549 36.4282C124.716 36.4282 125.706 36.8158 126.371 37.5759L125.721 38.2317C125.115 37.6355 124.421 37.3672 123.593 37.3672C121.894 37.3672 120.667 38.5597 120.667 40.2141C120.667 41.8388 121.894 43.061 123.593 43.061C124.214 43.061 124.79 42.9269 125.322 42.584V40.1694H125.293Z" fill="white"/>
<path d="M133.215 43.9255L131.633 41.645C131.486 41.6599 131.323 41.6599 131.175 41.6599H129.358V43.9106H128.309V36.4878H131.175C133.082 36.4878 134.249 37.4566 134.249 39.0664C134.249 40.2141 133.658 41.0339 132.638 41.4065L134.382 43.8957H133.215V43.9255ZM133.185 39.0813C133.185 38.023 132.476 37.4119 131.131 37.4119H129.343V40.7507H131.131C132.476 40.7656 133.185 40.1545 133.185 39.0813Z" fill="white"/>
<path d="M135.342 40.2141C135.342 38.038 136.997 36.4282 139.258 36.4282C141.489 36.4282 143.159 38.038 143.159 40.2141C143.159 42.3903 141.504 44 139.258 44C136.997 44 135.342 42.3754 135.342 40.2141ZM142.095 40.2141C142.095 38.5746 140.883 37.3672 139.243 37.3672C137.588 37.3672 136.376 38.5746 136.376 40.2141C136.376 41.8537 137.588 43.061 139.243 43.061C140.883 43.061 142.095 41.8537 142.095 40.2141Z" fill="white"/>
<path d="M144.695 40.7211V36.5029H145.744V40.6764C145.744 42.3159 146.483 43.0612 147.813 43.0612C149.143 43.0612 149.897 42.3159 149.897 40.6764V36.5029H150.916V40.7211C150.916 42.8674 149.749 44.0002 147.813 44.0002C145.863 44.0002 144.695 42.8674 144.695 40.7211Z" fill="white"/>
<path d="M158.999 39.0813C158.999 40.691 157.846 41.6599 155.925 41.6599H154.108V43.9106H153.059V36.4878H155.925C157.846 36.5027 158.999 37.4715 158.999 39.0813ZM157.95 39.0813C157.95 38.023 157.24 37.4119 155.896 37.4119H154.108V40.7358H155.896C157.24 40.7507 157.95 40.1545 157.95 39.0813Z" fill="white"/>
<path d="M24.043 11.4175H26.8949V26.8741H24.043V11.4175Z" fill="white"/>
<path d="M40.6664 26.8741L36.5141 21.0015L32.4061 26.8741H29.1699L34.859 18.9893L29.4802 11.4175H32.7016L36.6175 16.9175L40.4891 11.4175H43.5774L38.2134 18.885L43.9764 26.8741H40.6664Z" fill="white"/>
<path d="M63.7191 24.4595V26.8592H52.2227V11.4175H63.4088V13.8172H55.0746V17.8416H62.4779V20.1966H55.0746V24.4595H63.7191Z" fill="white"/>
<path d="M66.8965 11.4175H69.7484V24.4446H77.7575V26.8741H66.8965V11.4175Z" fill="white"/>
<path d="M91.5004 24.4595V26.8592H80.0039V11.4175H91.1901V13.8172H82.8559V17.8416H90.2591V20.1966H82.8559V24.4595H91.5004Z" fill="white"/>
<path d="M108.745 26.8741L108.73 16.6343L103.691 25.1153H102.42L97.3811 16.7684V26.8741H94.6621V11.4175H96.9969L103.085 21.6573L109.055 11.4175H111.39L111.419 26.8741H108.745Z" fill="white"/>
<path d="M127.069 24.4595V26.8592H115.572V11.4175H126.758V13.8172H118.424V17.8416H125.827V20.1966H118.424V24.4595H127.069Z" fill="white"/>
<path d="M143.855 11.4175V26.8741H141.505L133.053 16.4107V26.8741H130.23V11.4175H132.565L141.018 21.8809V11.4175H143.855Z" fill="white"/>
<path d="M151.081 13.847H145.998V11.4175H159.002V13.847H153.918V26.8741H151.067V13.847H151.081Z" fill="white"/>
<path d="M159.001 5.54492H24.043V6.88639H159.001V5.54492Z" fill="white"/>
<path d="M159.016 7.49756H24.0586V8.31734H159.016V7.49756Z" fill="white"/>
<path d="M159.001 31.3906H24.043V32.7321H159.001V31.3906Z" fill="white"/>
<path d="M159.001 29.9595H24.043V30.7793H159.001V29.9595Z" fill="white"/>
<path d="M20.7173 1.04336H1.12305V37.1436L0 36.1003V0H19.9784L20.7173 1.04336Z" fill="white"/>
</g>
<defs>
<clipPath id="clip0_612_652">
<rect width="159" height="44" fill="white"/>
</clipPath>
</defs>
</svg>
